<svg xmlns="http://www.w3.org/2000/svg" xmlns:xlink="http://www.w3.org/1999/xlink" viewBox="0 0 1211.35 1193.23"><defs><radialGradient id="a" cx="852.97" cy="1754.25" r="848.04" gradientUnits="userSpaceOnUse"><stop offset="0.25" stop-color="#faf5ad"/><stop offset="0.93" stop-color="#3c7699"/></radialGradient></defs><title>wwwlogo</title><path d="M1130.46,1552.8L1448,1137.22l-74.4-101.79-197.75,325.13L1318.2,976l-169.34,323.83L1291.5,893.33l-68.15-90L1296,539.56l-249.75,6.75L920,1170.41l-71.75-660.1L792,1169.56,666,541.81l-270-4.5,75,266.1-65.24,86.16L548.3,1296,379,972.22,521.3,1356.79,323.56,1031.67l-74.41,101.8,329.64,431.38q-17.25,16.4-33.26,34.87l632.35,0.42A515.25,515.25,0,0,0,1130.46,1552.8Zm-458.46-57h1.1l-1,.52Z" transform="translate(-242.91 -415.1)" fill="url(#a)"/><polyline points="342.5 1126.68 33.95 720.97 81.89 655.4 305.36 1002.69 305.36 1002.69 231.06 769.23 344.36 962.2 344.36 962.2 187.96 480.83 238.47 416.25" fill="none" stroke="#edab20" stroke-miterlimit="10" stroke-width="6"/><polyline points="440.12 1058.44 181.59 140.66 408.61 144.44 557.06 866.15 557.06 866.15 609.7 300.35 675.06 864.15 675.06 864.15 821.75 148.78 1028.64 143.18 779.73 1052.42" fill="none" stroke="#edab20" stroke-miterlimit="10" stroke-width="6"/><polyline points="456.19 1053.17 209.12 176.1 393.25 179.17 558.78 932.62 558.06 929.15 612.06 453.15 676.06 933.15 676.06 933.15 839.15 183.34 1003.24 178.9 765.39 1047.69" fill="none" stroke="#edab20" stroke-miterlimit="10" stroke-width="6"/><path d="M674.77,1503.8" transform="translate(-242.91 -415.1)" fill="none" stroke="#231f20" stroke-miterlimit="10" stroke-width="10"/><polyline points="234.76 377.38 162.76 472.47 305.39 878.95 136.06 555.13 278.39 939.7 80.65 614.57 6.24 716.38 335.88 1149.75" fill="none" stroke="#231f20" stroke-miterlimit="10" stroke-width="10"/><path d="M1022.4,1507.57" transform="translate(-242.91 -415.1)" fill="none" stroke="#231f20" stroke-miterlimit="10" stroke-width="10"/><polyline points="976.59 381.15 1048.59 476.24 905.96 882.71 1075.3 558.88 932.96 943.46 1130.71 618.34 1205.12 720.13 887.55 1137.7" fill="none" stroke="#231f20" stroke-miterlimit="10" stroke-width="10"/><polyline points="871.63 1125.6 1180.17 719.89 1132.24 654.32 908.77 1001.61 908.77 1001.61 983.06 768.15 869.77 961.12 869.77 961.12 1026.16 479.75 975.65 415.17" fill="none" stroke="#edab20" stroke-miterlimit="10" stroke-width="6"/><path d="M987.21,1168.56" transform="translate(-242.91 -415.1)" fill="#fff" stroke="#231f20" stroke-miterlimit="10"/><path d="M804.3,1168.56" transform="translate(-242.91 -415.1)" fill="#fff" stroke="#231f20" stroke-miterlimit="10"/><path d="M545.53,1597.72l632.35,0.42c-83.74-95.09-194-152.87-314.68-152.87C741,1445.27,629.66,1500.61,545.53,1597.72Z" transform="translate(-242.91 -415.1)" fill="none" stroke="#231f20" stroke-miterlimit="10" stroke-width="18"/><path d="M581.7,1586.2c32.52-31,78.68-64.51,117.1-83.12a374.16,374.16,0,0,1,164.38-37.81c55.92,0,110.53,13,162.33,38.7,37.59,18.64,84.73,54.58,117.16,85.23" transform="translate(-242.91 -415.1)" fill="none" stroke="#edab20" stroke-miterlimit="10" stroke-width="6"/><path d="M608.7,1589.2c16.5-24,77.79-57.93,98.82-68.12a354.31,354.31,0,0,1,155.67-35.81c52.81,0,104.44,12.32,153.44,36.62,20.39,10.11,73.54,43.31,90,64.31" transform="translate(-242.91 -415.1)" fill="none" stroke="#edab20" stroke-miterlimit="10" stroke-width="6"/><line x1="222.58" y1="1185.15" x2="1014.66" y2="1185.15" fill="none" stroke="#000" stroke-linecap="round" stroke-miterlimit="10" stroke-width="16.17"/><polyline points="795.06 1072.15 1055.05 122.46 805.3 129.21 679.05 753.31 607.3 93.21 551.05 752.46 425.05 124.71 155.05 120.21 425.05 1078.71" fill="none" stroke="#010101" stroke-miterlimit="150" stroke-width="18"/><path d="M834.35,1190l137.6-68.8v-66.4H760v64.8l-56.8-10.4v-22.4q0-84.79,81.8-84.8H938.13q93,0,93,76.8v72l-144.8,73.6v23.2h-52V1190Zm64,139.6q4.8,2.81,4.8,18.8V1394q0,16-4.4,18.4t-19.6,2.4h-48c-7.48,0-12-1.46-13.6-4.4s-2.4-8.4-2.4-16.4v-45.6q0-16,4.8-18.8t19.2-2.8h40Q893.55,1326.83,898.35,1329.63Z" transform="translate(-242.91 -415.1)" fill="#231f20" stroke="#edab20" stroke-miterlimit="10" stroke-width="7"/></svg>